<svg id="Layer_1" data-name="Layer 1" xmlns="http://www.w3.org/2000/svg" width="346" height="296.9" viewBox="0 0 346 296.9">
  <path d="M325.71,12.87c-33.35-7.26-58.54,29.94-74.55,52,3,1.93,3.11,3.41,3.26,5.63-25-10.37-50.24-18.37-76.77-10.81-15.26-15.12-61.5,5.92-73.36,18.08,2.08.59,4.3,1.18,6.52,1.78,4-3.27,14.53-5.19,29.79-1.64,42.39-15.26,90.26-15.56,143.76-.44l23.27,75.29C335,114.24,360.39,40.74,325.71,12.87ZM125.63,156.78c-12.89.44-17.93,7.85-22.23,16,.3-6.67-4.44-15.26-9.63-20,11.86.29,12.89-18.53,12.89-18.53-8,3.71-3,21.79-20,15a62.48,62.48,0,0,1,3.41-9.78,57.93,57.93,0,0,1-25.5,14.67c-13.63,13.78-34.23,63.73-10.67,73.66,8.3,3.41,9.79-6.52,12.6-17.19,3.41-13.34,15.12-23,35.13-21.05-2.67-6.22,2.51-11.11,3.26-13.19-.45,5.19,3.7,11.26,10.67,18.08,45.64,10.23,65.2,64.32,96.48,50.24,5.18,13.19,20.89,15,28.3,9.78-6.22,13.79-46.68,19-43.42,3.26-38.83,6.08-33.2-45.94-76.32-56.17-20,9.19-24.9,6.38-29-3C76,200.2,71,211.76,73.17,230.14c5.48,41.35,128.34,77.36,150,39.42,66.84,15,67.88-84.33,63-121.08,2.37-2.08,11.11,17.19,13.48,14.37l-8.3-36c-4.44-3.7-8.3-11.11-9.78-18.23-2.22-10.22-7.7-7.56-10.82.74-3,8-4.15,15.86-7.11,23.72-7.56,19.71-19.86,28.75-48.31,28.75,10.67,17.34,7,42.23,19.56,53.5-16-8.3-17.49-35.27-29.79-53.8-4.45-.3-9-.59-13.49-1.19h0c14.53,12.45,16.45,31.42,17,51-3.86-36.91-20.45-47.58-27.12-52.91-1.19-.3-36-4.45-45.8-40.76a101.14,101.14,0,0,1-4.44-18.37c-.75-5.34-15.12-4.6-18.08.59-3.27,9.34-7.71,19.71-14.38,29,4.59-2.52,11-3.26,19.86-1,5.93-3,12-2.52,18.23.44,5.33,7.41,10.82,14.68,16.15,22.09-32.16,17.78-34.53-13.94-26.08-13.79C118.67,135,117.33,150.7,125.63,156.78Zm34.09-108C161.5,32.14,158.53,1.31,135,7.69c-23.42,6.22-27.71,36.9-27,58.24C121,55.56,137.19,48.59,159.72,48.74ZM97,76.16C66.35,69.78,36.27,73,6.78,86.83A27.17,27.17,0,0,0,2.48,104c3.11,1.92,4.15,0,4.15,5.19-1.63,14.07,3.26,37.05,7,41.2,7.86,9.18,20.31,10.22,43.28,6.37-19.27,9-52.91,82.55,6.37,81.95C66.8,294.16,211,315.65,230.12,282.3,277,297,304.37,245.25,298.73,172.93c39-33.64,72.33-134,29.79-165.24-39.12-9.78-65.36,30.38-82.84,54.09C220.63,51.41,198.85,47.55,179.43,53c-2.81-2.82-9-3.86-12.6-4,6.08-24.46-11.7-52.91-34.08-47-29.49,7.85-33,47.72-31,69.21C100.14,72.9,98.51,74.53,97,76.16ZM9.15,92c-2.52.74-4.45,2.08-4,3,.29.89,2.81,1,5.48.29s4.45-2.07,4.15-3C14.33,91.27,11.82,91.27,9.15,92ZM273,82.53c4.15.3,7.55,1.78,7.55,3.41s-3.55,2.81-7.7,2.52c-4.3-.3-7.56-1.78-7.56-3.41S268.65,82.23,273,82.53ZM100,83.42c13.63,12.15-12.45,47.13-23.42,58,26.08-32.46,28.75-53.8,21.93-55.58-41.35-9-83.58,11.41-86.1,41.79.29-16.6-2.22-33.64,12.45-41C54.94,71.27,89.92,74.38,100,83.42Zm63.43-6.52C144.6,83.27,140,97.65,144,117.06c10.38-24.45,40.16-38.38,115-28,8.44,9.78,5.78,25.94-2.08,44.76,9.49-18.68,12.45-35.13,4.45-47.72C232.64,68.15,198.85,69,163.43,76.9Zm3.7,89.21c-24.45-8-42.83-4-57.65,7.12A175.1,175.1,0,0,1,167.13,166.11Zm-64.76,2.38c-3.86-9.64-9.78-11.71-16.31-11C91.55,161.22,97,164.93,102.37,168.49Z" transform="translate(-2.37 -1.26)" fill="#010326" fill-rule="evenodd"/>
</svg>
