<svg xmlns="http://www.w3.org/2000/svg" width="258.84" height="45.718" viewBox="0 0 258.84 45.718"><path fill="#010326" d="M4.45 33.74a2.789 2.789 0 0 0 2.42-1.056c1.98-2.465 4.84-6.513 7.75-10.87a7.829 7.829 0 0 0 1.01 1.628c.44.528 1.28 1.056 3.17.748 6.25-1.012 15.36-8.009 15.36-14.61a6.1 6.1 0 0 0-1.41-3.784c-1.54-1.717-3.83-2.553-6.56-2.861a1.275 1.275 0 0 0-.44-.836 15.067 15.067 0 0 0-2.02-1.32c-.62-.308-1.01-.132-1.67.66a17.871 17.871 0 0 0-1.15 1.5 28.793 28.793 0 0 0-4.62.616c-1.01.264-1.36.528-1.36 1.188 0 .4.09 1.761.17 2.377.14.924.58 1.584 1.46 1.54A281.06 281.06 0 0 0 .1 33.7c-.27.44 0 .528.22.528.83-.004 2.07-.4 4.13-.488zM26.98 7.16a7.458 7.458 0 0 1 4.54 1.1c-1.06 4.709-9.38 9.9-15.05 10.738 2.86-4.313 5.59-8.626 7.52-11.662a25.1 25.1 0 0 1 2.99-.176zm13.47 24.027a3.811 3.811 0 0 0 2.64.924c3.52 0 8.01-5.544 9.55-8.1l.13-.22a.585.585 0 0 0-.09-.836l-.13-.132c-.13-.132-.22-.088-.53.308l-.13.176c-2.82 3.785-5.02 5.545-6.91 5.985-.35-.748.4-2.332 2.11-5.193 1.59-2.552 2.2-3.7 2.2-4.664a1.535 1.535 0 0 0-1.49-1.5 14.36 14.36 0 0 0-2.51-.4c-.66 0-.88.352-1.63 1.629-2.9 4.84-6.21 8.713-9.02 9.681 1.8-4.005 6.2-7.569 6.2-10.518 0-1.936-2.81-2.42-4.44-2.42a.833.833 0 0 0-.93.44c-.22.924-.83 1.848-4.7 6.953-2.73 3.609-3.22 5.765-1.72 7.437a4.645 4.645 0 0 0 3.3 1.98c1.85 0 4.75-2.376 7.53-5.676-.93 2.298-.49 3.31.57 4.146zm1.58 13.334c1.89-.4 3.12-.88 5.81-4.532 1.58-2.2 3.96-5.853 6.29-9.55a4.213 4.213 0 0 0 3.48 1.54c2.46 0 6.03-1.76 8.36-4.488 1.89-2.2 3.12-4.665 3.12-6.777a4.167 4.167 0 0 0-1.14-3.125 3.724 3.724 0 0 0-2.69-1.144 12.518 12.518 0 0 0-4.27.968 1.881 1.881 0 0 0-1.49-1.628 4.232 4.232 0 0 0-1.67-.572c-.58 0-1.06.572-5.94 8.1C48.5 28.506 44.54 35.327 40 43.424c-.52.968-.13 1.32.53 1.32a8.733 8.733 0 0 0 1.5-.223zM55.8 27.667c1.1-1.8 2.11-3.565 2.99-5.061 3.3-2.728 5.64-4.049 7.53-4.269.13 2.469-4.8 8.054-10.52 9.33zm6.03 16.854c1.89-.4 3.12-.88 5.81-4.532 1.58-2.2 3.96-5.853 6.29-9.55a4.213 4.213 0 0 0 3.48 1.54c2.46 0 6.03-1.76 8.36-4.488 1.89-2.2 3.12-4.665 3.12-6.777a4.167 4.167 0 0 0-1.14-3.125 3.724 3.724 0 0 0-2.69-1.144 12.518 12.518 0 0 0-4.27.968 1.881 1.881 0 0 0-1.49-1.628 4.232 4.232 0 0 0-1.67-.572c-.58 0-1.06.572-5.94 8.1-3.39 5.193-7.35 12.014-11.89 20.111-.52.968-.13 1.32.53 1.32a8.733 8.733 0 0 0 1.5-.223zM75.6 27.667c1.1-1.8 2.11-3.565 2.99-5.061 3.3-2.728 5.64-4.049 7.53-4.269.13 2.469-4.8 8.054-10.52 9.33zM84 45.709c5.15 0 11.18-4.664 16.86-13.069a23.28 23.28 0 0 0 10.96-8.626l.13-.176a.63.63 0 0 0-.05-.88l-.17-.132c-.13-.088-.27-.044-.53.308l-.13.176a23.205 23.205 0 0 1-8.36 6.513c2.37-3.74 4.49-7.305 5.76-9.725.71-1.277.18-2.157-1.32-2.641a9.06 9.06 0 0 0-1.89-.572c-.44 0-.66.264-1.72 1.716-3.3 4.533-5.76 6.865-7.74 8.054.7-1.673 1.8-3.785 2.55-5.545 1.28-2.949.79-4.225-1.1-5.017a5.229 5.229 0 0 0-1.94-.44.644.644 0 0 0-.66.66 26.494 26.494 0 0 1-3.38 7c-2.64 4.269-2.95 5.589-2.03 6.6a3.741 3.741 0 0 0 2.77 1.452 5.539 5.539 0 0 0 2.69-1.056 27.174 27.174 0 0 0 3.96-3.564c-1.19 1.98-2.29 3.74-3.39 5.28-6.03 1.365-11.13 2.685-14.04 5.237-2.37 2.112-2.42 4.753-1.32 6.337A4.866 4.866 0 0 0 84 45.706zm.22-6.689c1.85-1.54 4.01-2.772 9.03-4.268-4.14 5.325-7.71 7.613-10.87 7.569a4.093 4.093 0 0 1 1.84-3.301zm32.83-4.884c9.42 0 20.07-5.853 25.26-13.07 3.34-4.621 3.87-8.405 2.6-11.706a10.17 10.17 0 0 0-7.57-6.205 5.175 5.175 0 0 0-1.5-2.244c-1.1-1.1-1.41-1.056-1.72-.66l-1.71 2.376a26.444 26.444 0 0 0-5.11.528c-.61.132-.48.748-.09 1.232a20.2 20.2 0 0 1 1.9 2.861c-4.45 6.2-8.5 11.97-13.16 19.011-.53.792-.31 1.452.66 2.728a40.2 40.2 0 0 1-3.3.264c-.57.044-.71.352-.49 1.232.62 2.333 1.37 3.653 4.23 3.653zm5.32-6.161c4.36-6.689 8.85-13.642 13.07-20.551 3.57.044 6.47 1.012 7.79 3.3-.79 5.589-8.01 14.038-20.86 17.251zm26.76 4.752c3.38 0 6.6-2.42 8.71-6.072a11.962 11.962 0 0 0 1.8-5.589c0-1.584-.57-2.949-1.8-3.389a4.821 4.821 0 0 0-3.7-1.76c-2.99 0-6.73 2.9-8.93 5.853a8.4 8.4 0 0 0-1.94 5.061 5.748 5.748 0 0 0 1.54 3.916 5.58 5.58 0 0 0 4.32 1.98zm1.23-7.393c2.11-3.344 4.84-5.808 6.86-6.469a1.2 1.2 0 0 1 .62 1.233c0 3.432-4.4 8.361-8.8 9.5a6.36 6.36 0 0 1 1.32-4.264zm5.01 20.375c4.05 0 10.78-3.256 17.69-13.158a23.944 23.944 0 0 0 10.92-8.537l.13-.176a.63.63 0 0 0-.05-.88l-.17-.132c-.13-.088-.27-.044-.53.308l-.13.176a23.1 23.1 0 0 1-8.28 6.381c2.82-4.4 5.37-8.757 6.12-10.165a.994.994 0 0 0-.31-1.365 11.541 11.541 0 0 0-2.94-1.276c-.66-.176-1.11.044-1.68.88a4.239 4.239 0 0 0-3.52-1.98c-3.52 0-8.05 3.036-10.74 6.645-2.99 3.961-1.84 7.041.22 8.1a2.753 2.753 0 0 0 2.03.836c1.32 0 3.3-.924 5.46-2.728a72.53 72.53 0 0 1-2.47 3.476c-4 .925-8.14 1.629-11.75 3.213-3.47 1.54-5.23 3.784-5.23 6.117a3.717 3.717 0 0 0 1.14 2.728 5.158 5.158 0 0 0 4.09 1.534zm9.51-17.338c.66-3.125 5.19-7.349 10.21-8.8a76.686 76.686 0 0 1-1.81 3.124c-3.03 3.564-5.67 5.236-8.4 5.676zm-7.22 12.762a11.152 11.152 0 0 1-4.14 1.364c.75-3.7 5.11-5.545 11.36-7.569a27.324 27.324 0 0 1-7.22 6.205zm32.74-6.953a18.409 18.409 0 0 0 2.81-.352 99.1 99.1 0 0 0 12.37-3.345c1.1-.4 1.14-.528 1.23-.968.13-.748.4-1.188.4-1.408s-.18-.352-.75-.264c-4.4.484-9.11 1.144-13.6 1.76l6.56-9.549c3.43-.528 7.48-1.233 10.03-1.761a3.544 3.544 0 0 0 2.2-1.012 5.476 5.476 0 0 0 1.01-1.628c.09-.176 0-.308-.3-.308-2.65.176-6.65.528-10.3.88 2.33-3.388 4.49-6.6 6.16-9.2 4.62-.7 9.24-1.5 12.72-2.156a2.082 2.082 0 0 0 1.58-.793 3.125 3.125 0 0 0 .44-1.364c0-.176-.09-.22-.31-.22-4.18.088-8.8.308-13.2.7-.92-.7-1.58-1.76-2.38-2.288-.44-.264-1.01-.22-1.67.66-.44.66-.97 1.364-1.54 2.156-2.02.22-3.96.484-5.76.792-.4.044-.49.176-.44.529a6.636 6.636 0 0 0 1.27 2.684 1.684 1.684 0 0 0 1.32.44l.4-.044c-4.89 6.645-11 14.962-13.86 20.507-.88 1.672 0 2.464.97 3.784.79 1.064 1.23 1.768 2.64 1.768zm14.82 11.529c5.15 0 11.18-4.664 16.86-13.069a23.251 23.251 0 0 0 10.95-8.626l.14-.176a.63.63 0 0 0-.05-.88l-.17-.132c-.14-.088-.27-.044-.53.308l-.13.176a23.205 23.205 0 0 1-8.36 6.513c2.37-3.74 4.48-7.305 5.76-9.725.7-1.277.18-2.157-1.32-2.641a9.238 9.238 0 0 0-1.89-.572c-.44 0-.66.264-1.72 1.716-3.3 4.533-5.76 6.865-7.74 8.054.7-1.673 1.8-3.785 2.55-5.545 1.28-2.949.79-4.225-1.1-5.017a5.229 5.229 0 0 0-1.94-.44.644.644 0 0 0-.66.66 26.307 26.307 0 0 1-3.39 7c-2.64 4.269-2.94 5.589-2.02 6.6a3.741 3.741 0 0 0 2.77 1.452 5.573 5.573 0 0 0 2.69-1.056 27.174 27.174 0 0 0 3.96-3.564c-1.19 1.98-2.29 3.74-3.39 5.28-6.03 1.365-11.14 2.685-14.04 5.237-2.38 2.112-2.42 4.753-1.32 6.337a4.853 4.853 0 0 0 4.09 2.107zm.22-6.689c1.85-1.54 4.01-2.772 9.02-4.268-4.13 5.325-7.7 7.613-10.87 7.569a4.108 4.108 0 0 1 1.85-3.301zm30.8-5.9c4.45 0 10.04-4.049 13.07-9.11l.14-.22a.583.583 0 0 0-.09-.836l-.13-.132c-.14-.132-.22-.088-.53.308l-.13.176c-3.08 4.093-7.88 6.777-11.18 6.777a2.935 2.935 0 0 1-1.45-.308 3.088 3.088 0 0 1 0-1.716 34.911 34.911 0 0 0 7.04-3.081c2.95-1.892 3.74-3.168 3.74-4.488a3.642 3.642 0 0 0-1.5-2.6 4.261 4.261 0 0 0-1.41-1.232 3.907 3.907 0 0 0-2.24-.748c-2.86 0-6.87 2.508-9.15 5.5-3.22 4.225-2.64 7.041-1.1 8.845 1.89 2.251 3.25 2.869 4.92 2.869zm5.51-9.858a25.82 25.82 0 0 1-4.98 2.641c1.54-3.037 4.8-6.293 7.22-6.821.44 1.544-.62 2.996-2.24 4.184zm6.11 11.53a8.157 8.157 0 0 0 4.31-1.5c2.03-1.453 2.69-2.861 2.69-4.269 0-2.772-2.73-3.477-2.73-4.8 0-1.54 3.3-3.432 6.38-4.4.48-.176.57-.7-.48-2.377a3.522 3.522 0 0 0-3.13-1.936 7.349 7.349 0 0 0-3.21 1.056c-2.03 1.144-3.39 2.817-3.39 4.665 0 2.332 2.86 3.608 2.86 5.237 0 1.408-2.16 3.476-6.56 4.972a.5.5 0 0 0-.26.792 4.842 4.842 0 0 0 .97 1.453 3.154 3.154 0 0 0 2.55 1.111z"/></svg>