<svg data-name="Layer 1" xmlns="http://www.w3.org/2000/svg" width="346" height="296.9" viewBox="0 0 346 296.9"><path d="M323.34 11.61c-33.35-7.26-58.54 29.94-74.55 52 3 1.93 3.11 3.41 3.26 5.63-25-10.37-50.24-18.37-76.77-10.81-15.26-15.12-61.5 5.92-73.36 18.08 2.08.59 4.3 1.18 6.52 1.78 4-3.27 14.53-5.19 29.79-1.64 42.39-15.26 90.26-15.56 143.76-.44l23.27 75.29c27.37-38.52 52.76-112.02 18.08-139.89zM123.26 155.52c-12.89.44-17.93 7.85-22.23 16 .3-6.67-4.44-15.26-9.63-20 11.86.29 12.89-18.53 12.89-18.53-8 3.71-3 21.79-20 15a62.48 62.48 0 0 1 3.41-9.78 57.93 57.93 0 0 1-25.5 14.67c-13.63 13.78-34.23 63.73-10.67 73.66 8.3 3.41 9.79-6.52 12.6-17.19 3.41-13.34 15.12-23 35.13-21.05-2.67-6.22 2.51-11.11 3.26-13.19-.45 5.19 3.7 11.26 10.67 18.08 45.64 10.23 65.2 64.32 96.48 50.24 5.18 13.19 20.89 15 28.3 9.78-6.22 13.79-46.68 19-43.42 3.26-38.83 6.08-33.2-45.94-76.32-56.17-20 9.19-24.9 6.38-29-3-15.6 1.64-20.6 13.2-18.43 31.58 5.48 41.35 128.34 77.36 150 39.42 66.84 15 67.88-84.33 63-121.08 2.37-2.08 11.11 17.19 13.48 14.37l-8.3-36c-4.44-3.7-8.3-11.11-9.78-18.23-2.22-10.22-7.7-7.56-10.82.74-3 8-4.15 15.86-7.11 23.72-7.56 19.71-19.86 28.75-48.31 28.75 10.67 17.34 7 42.23 19.56 53.5-16-8.3-17.49-35.27-29.79-53.8-4.45-.3-9-.59-13.49-1.19 14.53 12.45 16.45 31.42 17 51-3.86-36.91-20.45-47.58-27.12-52.91-1.19-.3-36-4.45-45.8-40.76a101.14 101.14 0 0 1-4.44-18.37c-.75-5.34-15.12-4.6-18.08.59-3.27 9.34-7.71 19.71-14.38 29 4.59-2.52 11-3.26 19.86-1 5.93-3 12-2.52 18.23.44 5.33 7.41 10.82 14.68 16.15 22.09-32.16 17.78-34.53-13.94-26.08-13.79-8.28-1.63-9.62 14.07-1.32 20.15zm34.09-108c1.78-16.64-1.19-47.47-24.72-41.09-23.42 6.22-27.71 36.9-27 58.24 13-10.37 29.19-17.34 51.72-17.19zM94.63 74.9C63.98 68.52 33.9 71.74 4.41 85.57a27.17 27.17 0 0 0-4.3 17.17c3.11 1.92 4.15 0 4.15 5.19-1.63 14.07 3.26 37.05 7 41.2 7.86 9.18 20.31 10.22 43.28 6.37-19.27 9-52.91 82.55 6.37 81.95 3.52 55.45 147.72 76.94 166.84 43.59 46.88 14.7 74.25-37.05 68.61-109.37 39-33.64 72.33-134 29.79-165.24-39.12-9.78-65.36 30.38-82.84 54.09-25.05-10.37-46.83-14.23-66.25-8.78-2.81-2.82-9-3.86-12.6-4 6.08-24.46-11.7-52.91-34.08-47-29.49 7.85-33 47.72-31 69.21-1.61 1.69-3.24 3.32-4.75 4.95zM6.78 90.74c-2.52.74-4.45 2.08-4 3 .29.89 2.81 1 5.48.29s4.45-2.07 4.15-3c-.45-1.02-2.96-1.02-5.63-.29zm263.85-9.47c4.15.3 7.55 1.78 7.55 3.41s-3.55 2.81-7.7 2.52c-4.3-.3-7.56-1.78-7.56-3.41s3.36-2.82 7.71-2.52zm-173 .89c13.63 12.15-12.45 47.13-23.42 58 26.08-32.46 28.75-53.8 21.93-55.58-41.35-9-83.58 11.41-86.1 41.79.29-16.6-2.22-33.64 12.45-41 30.08-15.36 65.06-12.25 75.14-3.21zm63.43-6.52c-18.83 6.37-23.43 20.75-19.43 40.16 10.38-24.45 40.16-38.38 115-28 8.44 9.78 5.78 25.94-2.08 44.76 9.49-18.68 12.45-35.13 4.45-47.72-28.73-17.95-62.52-17.1-97.94-9.2zm3.7 89.21c-24.45-8-42.83-4-57.65 7.12a175.1 175.1 0 0 1 57.65-7.12zM100 167.23c-3.86-9.64-9.78-11.71-16.31-11 5.49 3.73 10.94 7.44 16.31 11z" fill="#010326" fill-rule="evenodd"/></svg>