<svg xmlns="http://www.w3.org/2000/svg" width="258.84" height="45.718" viewBox="0 0 258.84 45.718">
  <path id="headline.svg" fill="#010326" d="M1026.36,166.834a2.789,2.789,0,0,0,2.42-1.056c1.98-2.465,4.84-6.513,7.75-10.87a7.829,7.829,0,0,0,1.01,1.628c0.44,0.528,1.28,1.056,3.17.748,6.25-1.012,15.36-8.009,15.36-14.61a6.1,6.1,0,0,0-1.41-3.784c-1.54-1.717-3.83-2.553-6.56-2.861a1.275,1.275,0,0,0-.44-0.836,15.067,15.067,0,0,0-2.02-1.32c-0.62-.308-1.01-0.132-1.67.66a17.871,17.871,0,0,0-1.15,1.5,28.793,28.793,0,0,0-4.62.616c-1.01.264-1.36,0.528-1.36,1.188,0,0.4.09,1.761,0.17,2.377,0.14,0.924.58,1.584,1.46,1.54a281.06,281.06,0,0,0-16.46,25.04c-0.27.44,0,.528,0.22,0.528C1023.06,167.318,1024.3,166.922,1026.36,166.834Zm22.53-26.58a7.458,7.458,0,0,1,4.54,1.1c-1.06,4.709-9.38,9.9-15.05,10.738,2.86-4.313,5.59-8.626,7.52-11.662A25.1,25.1,0,0,1,1048.89,140.254Zm13.47,24.027a3.811,3.811,0,0,0,2.64.924c3.52,0,8.01-5.544,9.55-8.1l0.13-.22a0.585,0.585,0,0,0-.09-0.836l-0.13-.132c-0.13-.132-0.22-0.088-0.53.308l-0.13.176c-2.82,3.785-5.02,5.545-6.91,5.985-0.35-.748.4-2.332,2.11-5.193,1.59-2.552,2.2-3.7,2.2-4.664a1.535,1.535,0,0,0-1.49-1.5,14.36,14.36,0,0,0-2.51-.4c-0.66,0-.88.352-1.63,1.629-2.9,4.84-6.21,8.713-9.02,9.681,1.8-4.005,6.2-7.569,6.2-10.518,0-1.936-2.81-2.42-4.44-2.42a0.833,0.833,0,0,0-.93.44c-0.22.924-.83,1.848-4.7,6.953-2.73,3.609-3.22,5.765-1.72,7.437a4.645,4.645,0,0,0,3.3,1.98c1.85,0,4.75-2.376,7.53-5.676C1060.86,162.433,1061.3,163.445,1062.36,164.281Zm1.58,13.334c1.89-.4,3.12-0.88,5.81-4.532,1.58-2.2,3.96-5.853,6.29-9.55a4.213,4.213,0,0,0,3.48,1.54c2.46,0,6.03-1.76,8.36-4.488,1.89-2.2,3.12-4.665,3.12-6.777a4.167,4.167,0,0,0-1.14-3.125,3.724,3.724,0,0,0-2.69-1.144,12.518,12.518,0,0,0-4.27.968,1.881,1.881,0,0,0-1.49-1.628,4.232,4.232,0,0,0-1.67-.572c-0.58,0-1.06.572-5.94,8.1-3.39,5.193-7.35,12.014-11.89,20.111-0.52.968-.13,1.32,0.53,1.32A8.733,8.733,0,0,0,1063.94,177.615Zm13.77-16.854c1.1-1.8,2.11-3.565,2.99-5.061,3.3-2.728,5.64-4.049,7.53-4.269C1088.36,153.9,1083.43,159.485,1077.71,160.761Zm6.03,16.854c1.89-.4,3.12-0.88,5.81-4.532,1.58-2.2,3.96-5.853,6.29-9.55a4.213,4.213,0,0,0,3.48,1.54c2.46,0,6.03-1.76,8.36-4.488,1.89-2.2,3.12-4.665,3.12-6.777a4.167,4.167,0,0,0-1.14-3.125,3.724,3.724,0,0,0-2.69-1.144,12.518,12.518,0,0,0-4.27.968,1.881,1.881,0,0,0-1.49-1.628,4.232,4.232,0,0,0-1.67-.572c-0.58,0-1.06.572-5.94,8.1-3.39,5.193-7.35,12.014-11.89,20.111-0.52.968-.13,1.32,0.53,1.32A8.733,8.733,0,0,0,1083.74,177.615Zm13.77-16.854c1.1-1.8,2.11-3.565,2.99-5.061,3.3-2.728,5.64-4.049,7.53-4.269C1108.16,153.9,1103.23,159.485,1097.51,160.761Zm8.4,18.042c5.15,0,11.18-4.664,16.86-13.069a23.28,23.28,0,0,0,10.96-8.626l0.13-.176a0.63,0.63,0,0,0-.05-0.88l-0.17-.132c-0.13-.088-0.27-0.044-0.53.308l-0.13.176a23.205,23.205,0,0,1-8.36,6.513c2.37-3.74,4.49-7.305,5.76-9.725,0.71-1.277.18-2.157-1.32-2.641a9.06,9.06,0,0,0-1.89-.572c-0.44,0-.66.264-1.72,1.716-3.3,4.533-5.76,6.865-7.74,8.054,0.7-1.673,1.8-3.785,2.55-5.545,1.28-2.949.79-4.225-1.1-5.017a5.229,5.229,0,0,0-1.94-.44,0.644,0.644,0,0,0-.66.66,26.494,26.494,0,0,1-3.38,7c-2.64,4.269-2.95,5.589-2.03,6.6a3.741,3.741,0,0,0,2.77,1.452,5.539,5.539,0,0,0,2.69-1.056,27.174,27.174,0,0,0,3.96-3.564c-1.19,1.98-2.29,3.74-3.39,5.28-6.03,1.365-11.13,2.685-14.04,5.237-2.37,2.112-2.42,4.753-1.32,6.337A4.866,4.866,0,0,0,1105.91,178.8Zm0.22-6.689c1.85-1.54,4.01-2.772,9.03-4.268-4.14,5.325-7.71,7.613-10.87,7.569A4.093,4.093,0,0,1,1106.13,172.114Zm32.83-4.884c9.42,0,20.07-5.853,25.26-13.07,3.34-4.621,3.87-8.405,2.6-11.706a10.17,10.17,0,0,0-7.57-6.205,5.175,5.175,0,0,0-1.5-2.244c-1.1-1.1-1.41-1.056-1.72-.66l-1.71,2.376a26.444,26.444,0,0,0-5.11.528c-0.61.132-.48,0.748-0.09,1.232a20.2,20.2,0,0,1,1.9,2.861c-4.45,6.2-8.5,11.97-13.16,19.011-0.53.792-.31,1.452,0.66,2.728-1.1.132-2.16,0.22-3.3,0.264-0.57.044-.71,0.352-0.49,1.232C1135.35,165.91,1136.1,167.23,1138.96,167.23Zm5.32-6.161c4.36-6.689,8.85-13.642,13.07-20.551,3.57,0.044,6.47,1.012,7.79,3.3C1164.35,149.407,1157.13,157.856,1144.28,161.069Zm26.76,4.752c3.38,0,6.6-2.42,8.71-6.072a11.962,11.962,0,0,0,1.8-5.589c0-1.584-.57-2.949-1.8-3.389a4.821,4.821,0,0,0-3.7-1.76c-2.99,0-6.73,2.9-8.93,5.853a8.4,8.4,0,0,0-1.94,5.061,5.748,5.748,0,0,0,1.54,3.916A5.58,5.58,0,0,0,1171.04,165.821Zm1.23-7.393c2.11-3.344,4.84-5.808,6.86-6.469a1.2,1.2,0,0,1,.62,1.233c0,3.432-4.4,8.361-8.8,9.5A6.36,6.36,0,0,1,1172.27,158.428Zm5.01,20.375c4.05,0,10.78-3.256,17.69-13.158a23.944,23.944,0,0,0,10.92-8.537l0.13-.176a0.63,0.63,0,0,0-.05-0.88l-0.17-.132c-0.13-.088-0.27-0.044-0.53.308l-0.13.176a23.1,23.1,0,0,1-8.28,6.381c2.82-4.4,5.37-8.757,6.12-10.165a0.994,0.994,0,0,0-.31-1.365,11.541,11.541,0,0,0-2.94-1.276c-0.66-.176-1.11.044-1.68,0.88a4.239,4.239,0,0,0-3.52-1.98c-3.52,0-8.05,3.036-10.74,6.645-2.99,3.961-1.84,7.041.22,8.1a2.753,2.753,0,0,0,2.03.836c1.32,0,3.3-.924,5.46-2.728-0.8,1.188-1.63,2.376-2.47,3.476-4,.925-8.14,1.629-11.75,3.213-3.47,1.54-5.23,3.784-5.23,6.117a3.717,3.717,0,0,0,1.14,2.728A5.158,5.158,0,0,0,1177.28,178.8Zm9.51-17.338c0.66-3.125,5.19-7.349,10.21-8.8-0.58,1.056-1.19,2.112-1.81,3.124C1192.16,159.353,1189.52,161.025,1186.79,161.465Zm-7.22,12.762a11.152,11.152,0,0,1-4.14,1.364c0.75-3.7,5.11-5.545,11.36-7.569A27.324,27.324,0,0,1,1179.57,174.227Zm32.74-6.953a18.409,18.409,0,0,0,2.81-.352,99.1,99.1,0,0,0,12.37-3.345c1.1-.4,1.14-0.528,1.23-0.968,0.13-.748.4-1.188,0.4-1.408s-0.18-.352-0.75-0.264c-4.4.484-9.11,1.144-13.6,1.76l6.56-9.549c3.43-.528,7.48-1.233,10.03-1.761a3.544,3.544,0,0,0,2.2-1.012,5.476,5.476,0,0,0,1.01-1.628c0.09-.176,0-0.308-0.3-0.308-2.65.176-6.65,0.528-10.3,0.88,2.33-3.388,4.49-6.6,6.16-9.2,4.62-.7,9.24-1.5,12.72-2.156a2.082,2.082,0,0,0,1.58-.793,3.125,3.125,0,0,0,.44-1.364c0-.176-0.09-0.22-0.31-0.22-4.18.088-8.8,0.308-13.2,0.7-0.92-.7-1.58-1.76-2.38-2.288-0.44-.264-1.01-0.22-1.67.66-0.44.66-.97,1.364-1.54,2.156-2.02.22-3.96,0.484-5.76,0.792-0.4.044-.49,0.176-0.44,0.529a6.636,6.636,0,0,0,1.27,2.684,1.684,1.684,0,0,0,1.32.44l0.4-.044c-4.89,6.645-11,14.962-13.86,20.507-0.88,1.672,0,2.464.97,3.784C1210.46,166.57,1210.9,167.274,1212.31,167.274Zm14.82,11.529c5.15,0,11.18-4.664,16.86-13.069a23.251,23.251,0,0,0,10.95-8.626l0.14-.176a0.63,0.63,0,0,0-.05-0.88l-0.17-.132c-0.14-.088-0.27-0.044-0.53.308l-0.13.176a23.205,23.205,0,0,1-8.36,6.513c2.37-3.74,4.48-7.305,5.76-9.725,0.7-1.277.18-2.157-1.32-2.641a9.238,9.238,0,0,0-1.89-.572c-0.44,0-.66.264-1.72,1.716-3.3,4.533-5.76,6.865-7.74,8.054,0.7-1.673,1.8-3.785,2.55-5.545,1.28-2.949.79-4.225-1.1-5.017a5.229,5.229,0,0,0-1.94-.44,0.644,0.644,0,0,0-.66.66,26.307,26.307,0,0,1-3.39,7c-2.64,4.269-2.94,5.589-2.02,6.6a3.741,3.741,0,0,0,2.77,1.452,5.573,5.573,0,0,0,2.69-1.056,27.174,27.174,0,0,0,3.96-3.564c-1.19,1.98-2.29,3.74-3.39,5.28-6.03,1.365-11.14,2.685-14.04,5.237-2.38,2.112-2.42,4.753-1.32,6.337A4.853,4.853,0,0,0,1227.13,178.8Zm0.22-6.689c1.85-1.54,4.01-2.772,9.02-4.268-4.13,5.325-7.7,7.613-10.87,7.569A4.108,4.108,0,0,1,1227.35,172.114Zm30.8-5.9c4.45,0,10.04-4.049,13.07-9.11l0.14-.22a0.583,0.583,0,0,0-.09-0.836l-0.13-.132c-0.14-.132-0.22-0.088-0.53.308l-0.13.176c-3.08,4.093-7.88,6.777-11.18,6.777a2.935,2.935,0,0,1-1.45-.308,3.088,3.088,0,0,1,0-1.716,34.911,34.911,0,0,0,7.04-3.081c2.95-1.892,3.74-3.168,3.74-4.488a3.642,3.642,0,0,0-1.5-2.6,4.261,4.261,0,0,0-1.41-1.232,3.907,3.907,0,0,0-2.24-.748c-2.86,0-6.87,2.508-9.15,5.5-3.22,4.225-2.64,7.041-1.1,8.845C1255.12,165.6,1256.48,166.218,1258.15,166.218Zm5.51-9.858a25.82,25.82,0,0,1-4.98,2.641c1.54-3.037,4.8-6.293,7.22-6.821C1266.34,153.72,1265.28,155.172,1263.66,156.36Zm6.11,11.53a8.157,8.157,0,0,0,4.31-1.5c2.03-1.453,2.69-2.861,2.69-4.269,0-2.772-2.73-3.477-2.73-4.8,0-1.54,3.3-3.432,6.38-4.4,0.48-.176.57-0.7-0.48-2.377a3.522,3.522,0,0,0-3.13-1.936,7.349,7.349,0,0,0-3.21,1.056c-2.03,1.144-3.39,2.817-3.39,4.665,0,2.332,2.86,3.608,2.86,5.237,0,1.408-2.16,3.476-6.56,4.972a0.5,0.5,0,0,0-.26.792,4.842,4.842,0,0,0,.97,1.453A3.154,3.154,0,0,0,1269.77,167.89Z" transform="translate(-1021.91 -133.094)"/>
</svg>
